<svg xmlns="http://www.w3.org/2000/svg" viewBox="0 0 512 512">
  <rect width="512" height="512" rx="96" fill="#4c6ef5"/>
  <g fill="none" stroke="#fff" stroke-width="28" stroke-linecap="round" stroke-linejoin="round">
    <!-- Brain icon -->
    <path d="M256 380V256"/>
    <path d="M256 256c-40-60-100-70-120-30s10 80 50 80"/>
    <path d="M256 256c40-60 100-70 120-30s-10 80-50 80"/>
    <path d="M186 206c-30-20-70-10-70 30s30 50 60 40"/>
    <path d="M326 206c30-20 70-10 70 30s-30 50-60 40"/>
    <circle cx="256" cy="160" r="40"/>
  </g>
  <!-- Mic wave -->
  <g fill="none" stroke="#a5d8ff" stroke-width="16" stroke-linecap="round" opacity="0.7">
    <path d="M160 400c30 30 66 46 96 46s66-16 96-46"/>
    <path d="M190 430c20 16 42 26 66 26s46-10 66-26"/>
  </g>
</svg>
